<?xml version="1.0"?>
<svg xmlns="http://www.w3.org/2000/svg" xmlns:xlink="http://www.w3.org/1999/xlink" version="1.1" id="Layer_1" x="0px" y="0px" viewBox="0 0 512 512" style="enable-background:new 0 0 512 512;" xml:space="preserve" width="512px" height="512px"><g><g>
	<g>
		<path d="M281.914,428.25l-1.203-0.344c-3.297-0.891-6.188-1.781-8.742-2.625C281.242,362.25,298.055,170.688,160,170.688    c-138.047,0-121.242,191.562-111.977,254.594c-2.562,0.844-5.445,1.734-8.734,2.625l-1.211,0.344    c-16.062,5.312-26.867,20.203-26.867,37.016V512H160h148.773v-46.734C308.773,448.453,297.977,433.562,281.914,428.25z     M253.748,298.686c2.172,16.406,3.133,34.531,2.836,54.188c-0.383,24.906-2.758,47.625-4.945,63.719    c-0.795-0.343-1.592-0.655-2.405-0.968c-27.867-10.625-35.117-18.281-36.969-21.891c-0.07-0.125-0.117-0.266-0.18-0.391    l-0.055-8.438c21.82-21.578,39.664-53.469,39.664-86.875c0-0.25-0.008-0.5-0.008-0.75L253.748,298.686z M202.9,363.516    c-15.9,18.125-33.619,27.609-42.9,27.609c-9.289,0-27-9.484-42.898-27.609c-15.445-17.609-25.062-38.312-27.07-57.891    c30.602-14.203,64.008-37.133,90.344-57.031l48.688,33.25c0.859,5.203,1.297,10.609,1.297,16.188    C230.361,319.751,220.353,343.626,202.9,363.516z M225.079,220.337c9.952,12.21,17.632,28.577,22.929,48.601l-49.914-34.078    c9.797-7.773,17.773-14.422,23.102-18.945C222.524,217.329,223.821,218.798,225.079,220.337z M94.914,220.336    c15.539-19.047,36.828-28.312,65.086-28.312c17.172,0,31.773,3.43,44.07,10.398c-11.188,9.367-30.555,25.102-52.773,41.07    c-33.508,24.078-62.078,40.57-84.117,48.664C72.008,261.328,81.344,236.977,94.914,220.336z M64.484,315.437    c1.695-0.5,3.406-1.031,5.133-1.594c4.477,27.469,20,52.906,38.352,71.062l-0.062,8.438c-0.062,0.125-0.109,0.266-0.18,0.391    c-1.852,3.609-9.102,11.266-36.969,21.891c-0.812,0.312-1.609,0.625-2.398,0.969c-2.196-16.094-4.563-38.813-4.946-63.719    C63.211,339.687,63.57,327.187,64.484,315.437z M287.445,490.656H160H32.547v-25.391c0-7.5,4.781-14.156,11.93-16.656l0.555-0.172    c13.891-3.75,21.859-7.562,27.695-10.344c2.227-1.062,3.984-1.906,5.633-2.531c27.391-10.438,42.297-20.328,48.328-32.062    c0.312-0.594,0.539-1.094,0.711-1.5l0.445-0.969c11.281,7.266,22.547,11.422,32.156,11.422c9.602,0,20.867-4.172,32.156-11.422    l0.391,0.875c0.172,0.406,0.414,0.938,0.734,1.562c6.023,11.75,20.938,21.641,48.367,32.094c1.633,0.625,3.398,1.469,5.625,2.531    c5.828,2.781,13.805,6.609,27.688,10.344l0.562,0.172c7.156,2.5,11.922,9.156,11.922,16.656V490.656z" data-original="#000000" class="active-path" data-old_color="#000000" fill="#B9A44C"/>
	</g>
</g><g>
	<g>
		<path d="M490.117,0H276.773c-5.883,0-10.664,4.773-10.664,10.664v192.008c0,5.891,4.781,10.672,10.664,10.672h32v42.664    l85.344-42.664h96c5.906,0,10.672-4.781,10.672-10.672V10.664C500.789,4.773,496.023,0,490.117,0z M479.461,192.008h-85.344    h-5.031l-4.5,2.25l-54.469,27.234v-8.148v-21.336h-21.344h-21.328V21.336h192.016V192.008z" data-original="#000000" class="active-path" data-old_color="#000000" fill="#B9A44C"/>
	</g>
</g><g>
	<g>
		<path d="M418.399,123.961l4-3.891l30.938-30.172L410.57,83.68l-5.516-0.805l-2.469-5L383.46,39.117l-19.14,38.758l-2.469,5    l-5.516,0.805l-42.781,6.219l30.953,30.172l3.985,3.89l-0.938,5.5l-7.312,42.602l38.281-20.117l4.938-2.594l4.922,2.594    l38.266,20.117l-7.312-42.602L418.399,123.961z M398.304,133.063l-14.844-7.812l-14.875,7.812l2.844-16.547l-12.031-11.727    l16.625-2.414l7.438-15.055l7.422,15.055l16.609,2.414l-12.016,11.727L398.304,133.063z" data-original="#000000" class="active-path" data-old_color="#000000" fill="#B9A44C"/>
	</g>
</g></g> </svg>
